# xmcd
# 
# Track frame offsets:
#     150
#     16423
#     32731
#     59862
#     78158
#     93748
#     111324
#     127596
#     143930
#     161365
#     178976
#     195240
#     225096
# 
# Disc length: 4440
# 
# Revision: 5
# Processed by: cddbd v1.5.2PL0 Copyright (c) Steve Scherf et al.
# Submitted via: fre:ac v1.0.17
# 
DISCID=a211560d
DTITLE=Luz Casal - Con otra mirada
DYEAR=2002
DGENRE=Espanol
TTITLE0=Ni tú ni yo
TTITLE1=Dame un beso
TTITLE2=Pueden ser tantas cosas
TTITLE3=Mantenerse en pie
TTITLE4=Tu perdón
TTITLE5=Perdida
TTITLE6=Tú eres para mí
TTITLE7=A veces un cielo
TTITLE8=El engaño
TTITLE9=El día que yo cambie
TTITLE10=Palabras guardadas
TTITLE11=Me gustaría que comprendieras
TTITLE12=Pista de Datos
EXTD=
EXTT0=
EXTT1=
EXTT2=
EXTT3=
EXTT4=
EXTT5=
EXTT6=
EXTT7=
EXTT8=
EXTT9=
EXTT10=
EXTT11=
EXTT12=
PLAYORDER=
